<svg xmlns="http://www.w3.org/2000/svg" viewBox="0 0 90 90"><defs><style>.cls-1{fill:#fff;}.cls-2,.cls-3{fill:#ffd600;}.cls-3{stroke:#ffd600;stroke-miterlimit:10;stroke-width:0.75px;}</style></defs><g id="レイヤー_2" data-name="レイヤー 2"><g id="background"><rect class="cls-1" x="5" y="5" width="80" height="80"/><path class="cls-2" d="M80,10V80H10V10H80M90,0H0V90H90V0Z"/></g><g id="typography"><path class="cls-3" d="M32.48,35.87v4.18H16.16V35.87H21.4V19.66l-5.78,2.17V17.22L24.25,14h3V35.87Z"/><path class="cls-3" d="M53.07,27c0,9.13-2.65,13.41-9.2,13.41S34.6,36.11,34.6,27s2.68-13.34,9.27-13.34S53.07,17.92,53.07,27Zm-6.38,0c0-7.29-.64-9.46-2.82-9.46s-3,2.17-3,9.46.67,9.43,3,9.43S46.69,34.3,46.69,27Z"/><path class="cls-3" d="M74.23,27c0,9.13-2.65,13.41-9.2,13.41S55.76,36.11,55.76,27,58.44,13.64,65,13.64,74.23,17.92,74.23,27Zm-6.38,0c0-7.29-.64-9.46-2.82-9.46s-3,2.17-3,9.46.67,9.43,3,9.43S67.85,34.3,67.85,27Z"/><path class="cls-3" d="M20.81,60.81l-5.38.1-.25-.28V56.1l.28-.25,5.32.1H37.62l5-.1.28.25v4.53l-.25.28-5.07-.1h-5a19.13,19.13,0,0,1-5.74,12.88,21.64,21.64,0,0,1-4,2.89,1.38,1.38,0,0,1-.6.22,1.5,1.5,0,0,1-.75-.36L17,73.62c5.63-2.14,9.35-6.32,9.81-12.81Zm12.6-7.89H24.13L19.39,53l-.25-.29v-4.6l.32-.22,4.39.11h9.53l4.85-.11.29.25v4.57l-.25.29Zm4.75-6.64,2.11-.89.35,0a21.85,21.85,0,0,1,2.79,4.47l-.11.32-2.21,1-.36-.07a22.31,22.31,0,0,0-2.64-4.5Zm3.75-1.5L44,43.85l.35,0A20.42,20.42,0,0,1,47,48.24l-.11.32-2.07,1-.35-.07a22.35,22.35,0,0,0-2.64-4.39Z"/><path class="cls-3" d="M68.56,50.2a19.65,19.65,0,0,0-2.43-3.35l.07-.32,2-1.07.36,0a22,22,0,0,1,3.1,4.21l-.07.36-1.5.78a30.26,30.26,0,0,1-6.32,16.85C61,71.29,56.92,74,51.5,76.4a1.83,1.83,0,0,1-.68.21c-.22,0-.39-.1-.75-.39l-4.36-3.5c6.11-2,10.07-4.49,13-8a21,21,0,0,0,4.49-9.31H51.1l-5.46.1-.32-.21V50.34l.29-.25L51,50.2ZM70.09,45l2-1.07.36,0a20.44,20.44,0,0,1,3,4.11l-.07.35-2,1.07-.36,0a20.6,20.6,0,0,0-3-4.14Z"/></g></g></svg>