<svg xmlns="http://www.w3.org/2000/svg" viewBox="0 0 340 340"><defs><style>.cls-1{fill:#fff;}.cls-2{fill:#ffd600;}</style></defs><g id="レイヤー_2" data-name="レイヤー 2"><g id="background"><rect class="cls-1" x="10" y="10" width="320" height="320"/><path class="cls-2" d="M320,20V320H20V20H320M340,0H0V340H340V0Z"/></g><g id="typography"><path class="cls-2" d="M63.73,136.79l4,.54.17.23a26.31,26.31,0,0,1-1.32,6.23,26.3,26.3,0,0,0-1.06,6.65,14,14,0,0,0,.17,2.9c.09.37.38.4.81,0a22.14,22.14,0,0,0,1.46-1.86l.83.43a19.84,19.84,0,0,0-1.35,6.05,1.89,1.89,0,0,1-2,2.12c-1.14,0-1.83-.6-2.49-1.75s-1.44-3.38-1.44-7.51a40.28,40.28,0,0,1,1.27-8.72A24.33,24.33,0,0,0,63.5,137ZM84.47,158a45.5,45.5,0,0,1-6.74.46c-5.77,0-7.29-2.9-8-6.09l.14-.25L73,150.73l.26.09c.54,2.69,1.66,3.55,5.5,3.52a33.67,33.67,0,0,0,5.37-.6l.26.17.26,3.85ZM72,139.69c1,0,1.87.05,2.76.05a47.24,47.24,0,0,0,8.09-.68l.2.17.17,3.61-.17.23a42.3,42.3,0,0,1-8.29.72c-.92,0-1.81,0-2.73-.06l-.2-.26v-3.55Z"/><path class="cls-2" d="M98.18,146.37c1.15.86,2.32,1.86,3.39,2.81a65.6,65.6,0,0,0,5-5h-12l-4.21.09-.2-.23v-3.79l.23-.2,4.1.09h13.68l3.07-.15,1.92,2.64a1.1,1.1,0,0,1,.29.66,1,1,0,0,1-.34.66,101.58,101.58,0,0,1-8.61,8.12c.74.75,1.46,1.55,2.18,2.38l-.06.29-3.24,2.81h-.26a45.44,45.44,0,0,0-8.2-8.41v-.28l2.9-2.47Z"/><path class="cls-2" d="M124.63,144.22a17.62,17.62,0,0,1,2.61,4.67l-.12.26-3.1,1.44-.25-.09a17.78,17.78,0,0,0-2.53-4.73l.12-.23,3-1.32Zm14.05.37a25.75,25.75,0,0,1-4,8.95,20.66,20.66,0,0,1-7,6.23,1.09,1.09,0,0,1-.46.17.79.79,0,0,1-.43-.17l-3-2c3.7-1.95,5.42-3.33,7.31-5.85s2.81-4.65,3.73-8.78L135,143l3.5,1.29Zm-8.75-1.86a14.89,14.89,0,0,1,2.64,4.47l-.11.26-3,1.43-.26,0a19.64,19.64,0,0,0-2.58-4.62l.08-.23,3-1.32Z"/><path class="cls-2" d="M166,144.79l3.76-.08.26.17v3.67l-.2.23-3.88-.09h-4.24a15.36,15.36,0,0,1-1.81,5.8,16.12,16.12,0,0,1-5.28,5.1,1.3,1.3,0,0,1-.57.23,1,1,0,0,1-.52-.2l-3.81-2.15c3-1.38,4.73-2.75,6-4.65a11.24,11.24,0,0,0,1.38-4.13h-5.19l-3.82.09-.2-.23v-3.67l.26-.17,3.81.08h5.37v-3c-1.78.26-3.59.46-5.39.66-.66.06-.72,0-1-.29l-2.32-3a60,60,0,0,0,15.6-3.13l.32.06,2.75,3-.06.32a39.68,39.68,0,0,1-5.3,1.49v3.84Z"/><path class="cls-2" d="M194.65,147.58v7.6l.08,3.07-.2.23-3.21-.09H184l-3.1.09-.2-.23v-3.07L181,155l2.81.09h7V153h-6.37l-3.07.08-.2-.23v-3l.26-.17,3.07.08h6.31v-1.92h-6.65l-3.22.09-.2-.23v-3l.26-.17,3.1.08h7.17l3.24-.08.23.2Z"/><path class="cls-2" d="M207.15,136.79l4,.54.17.23a26.83,26.83,0,0,1-1.32,6.23,26.3,26.3,0,0,0-1.06,6.65,14,14,0,0,0,.17,2.9c.09.37.37.4.8,0a22.25,22.25,0,0,0,1.47-1.86l.83.43a19.84,19.84,0,0,0-1.35,6.05,1.89,1.89,0,0,1-2,2.12c-1.15,0-1.83-.6-2.49-1.75s-1.44-3.38-1.44-7.51a40.25,40.25,0,0,1,1.26-8.72,24.38,24.38,0,0,0,.75-5.11ZM227.89,158a45.6,45.6,0,0,1-6.74.46c-5.77,0-7.29-2.9-8-6.09l.15-.25,3.07-1.41.25.09c.55,2.69,1.67,3.55,5.51,3.52a33.67,33.67,0,0,0,5.37-.6l.25.17.26,3.85Zm-12.51-18.33c1,0,1.87.05,2.76.05a47.24,47.24,0,0,0,8.09-.68l.2.17.17,3.61-.17.23a42.37,42.37,0,0,1-8.29.72c-.92,0-1.81,0-2.73-.06l-.2-.26v-3.55Z"/><path class="cls-2" d="M245.36,135.73c-.26,1.15-.58,2.26-.84,3.3,1-.2,2-.43,3-.69l.25.11.55,2.53a24.09,24.09,0,0,1,8.86,2.23l.09.29-1.18,3.19-.23.11a4.7,4.7,0,0,0-2.32-.49c-1.83,0-3.41.72-3.41,2a13.67,13.67,0,0,0,1.26,4.28,27.19,27.19,0,0,1,6.25,3.67v.28l-2.41,3.1-.25,0a27.86,27.86,0,0,0-3.36-2.72c-.09,2.32-2.61,3.84-5.85,3.84-3.73,0-6-1.49-6-4.48,0-2.69,2.3-4.59,5.37-4.59a9.31,9.31,0,0,1,1.86.15,10,10,0,0,1-.63-3.5c.06-1.55,1.52-2.87,3.9-3.59a37.63,37.63,0,0,0-3.9-.4l-.14-.2.71-1.64c-1.23.26-2.49.52-3.75.69a50.47,50.47,0,0,1-6.77,12.63l-.29,0-3.39-2.18v-.26a37.55,37.55,0,0,0,5.8-9.69c-1.49.14-3,.23-4.59.26l-.23-.17-.09-3.53.2-.2c2.18-.06,4.22-.21,6.17-.41a41.76,41.76,0,0,0,1.09-4.76l.26-.17,3.84.66ZM245,155.06c-1,0-1.55.6-1.55,1.09,0,.69.63,1.15,1.67,1.15,1.63,0,2.58-.57,2.55-1.72A5.08,5.08,0,0,0,245,155.06Z"/><path class="cls-2" d="M266.07,141.84l-.75-3.67.17-.26c4.36-1,8.78-1.67,11.91-2.07a2.59,2.59,0,0,1,2.64,2.5,2,2,0,0,1-.52,1.49c-2.32,2.29-3.93,3.76-6.31,6.11a7.08,7.08,0,0,1,3.58-.75c4.34,0,7.23,3,7.23,7.41,0,5.22-3.93,8.17-10.55,8.17-3.39,0-6.26-1.4-6.26-4.68,0-1.86,2.07-4,4.39-4a6,6,0,0,1,5.83,4.24c1.69-.8,2.2-2.15,2.2-4.16a3.62,3.62,0,0,0-3.9-3.61c-4.1,0-7.05,2.7-10.09,6.63l-.29,0-3.07-2.46,0-.32c4-4.53,7.57-8.49,11.39-12.28-2.18.46-4.71,1.07-7.35,1.81Zm5.82,13.62c-.57,0-1.09.23-1.09.75s.66,1.15,2.12,1.15a3.68,3.68,0,0,0,.92-.09A2.19,2.19,0,0,0,271.89,155.46Z"/><path class="cls-2" d="M80.31,229.32l-17.89.35-.83-.94v-15l.94-.83,17.66.35h55.93l16.71-.35.95.83v15l-.83.94-16.83-.35H119.65c-.83,16-7.35,31.64-19.08,42.78a72.76,72.76,0,0,1-13.39,9.6,4.61,4.61,0,0,1-2,.71,4.94,4.94,0,0,1-2.49-1.19l-15.05-9.36c18.72-7.11,31.05-21,32.59-42.54Zm41.83-26.19H91.33l-15.76.36-.83-1V187.25l1.07-.71,14.57.36H122l16.12-.36,1,.83v15.17l-.83,1Zm15.76-22,7-3,1.19.12a72.69,72.69,0,0,1,9.24,14.81l-.36,1.06-7.34,3.2-1.19-.23a71.68,71.68,0,0,0-8.77-14.93Zm12.44-5,6.88-3.08,1.18.12a68.42,68.42,0,0,1,8.89,14.46l-.36,1.06-6.87,3.2-1.18-.24a73.83,73.83,0,0,0-8.77-14.57Z"/><path class="cls-2" d="M262.56,193.06a64.43,64.43,0,0,0-8.06-11.14l.24-1.07,6.63-3.55,1.19.12a71,71,0,0,1,10.31,14l-.24,1.18-5,2.61c-1.66,21-8.29,40.05-21,55.93-9.36,12-22.75,21-40.77,28.92a5.9,5.9,0,0,1-2.25.71c-.71,0-1.3-.36-2.49-1.31l-14.45-11.61c20.26-6.75,33.41-14.93,43.13-26.66a69.79,69.79,0,0,0,14.93-30.93H204.61l-18.13.36-1.07-.72V193.53l1-.83,18,.36Zm5.09-17.18,6.64-3.56,1.18.12a68.18,68.18,0,0,1,10,13.63l-.24,1.18-6.75,3.56-1.19-.12a69.62,69.62,0,0,0-9.83-13.75Z"/><path class="cls-2" d="M93.92,109v8.15H62.22V109H72.39V77.35L61.17,81.59v-9l16.77-6.26h5.87V109Z"/><path class="cls-2" d="M133.91,91.64c0,17.81-5.16,26.16-17.88,26.16s-18-8.35-18-26.16,5.22-26,18-26S133.91,74,133.91,91.64Zm-12.4,0c0-14.22-1.24-18.46-5.48-18.46-4.43,0-5.74,4.24-5.74,18.46S111.6,110,116,110C120.27,110,121.51,105.92,121.51,91.64Z"/><path class="cls-2" d="M175,91.64c0,17.81-5.15,26.16-17.87,26.16s-18-8.35-18-26.16,5.22-26,18-26S175,74,175,91.64Zm-12.39,0c0-14.22-1.24-18.46-5.48-18.46-4.44,0-5.74,4.24-5.74,18.46s1.3,18.39,5.74,18.39C161.37,110,162.61,105.92,162.61,91.64Z"/><path class="cls-2" d="M191.1,113.52v4.29h-8.4L183,93.37V78.07l-.17-9.52.44-.34,9.41.17h20.1l9.35-.17.44.34-.16,9.52V92.54l.27,25.27H214v-4.29ZM214,75.4H191.1V87.2H214Zm0,18.75H191.1V106.4H214Z"/><path class="cls-2" d="M244.87,118h-7.68l.27-14.36V97.49a20.89,20.89,0,0,1-2.17,2.34,1.34,1.34,0,0,1-.72.34c-.33,0-.56-.23-.67-.62l-2.56-6.79a44.54,44.54,0,0,0,11.52-15.08l.56-.06,5.79,3.23.17.5a52.06,52.06,0,0,1-4.51,7.79Zm-2-53.38,5.79,3.51.17.5A48.48,48.48,0,0,1,237.08,81a1.26,1.26,0,0,1-.67.33c-.23,0-.45-.22-.73-.61l-4.06-5.62a33.75,33.75,0,0,0,10.74-10.41Zm24.94,3.51a89.77,89.77,0,0,1-6.68,8.13c.83.66,1.61,1.39,2.39,2.11,2.78-3.23,5.4-6.57,7.63-9.74l.55-.11,5.79,3.39.17.56a146.37,146.37,0,0,1-11.58,12.8c2.51-.11,5-.28,7.52-.44-.73-.84-1.45-1.73-2.17-2.56l.16-.5,4.73-3,.73.11A64.19,64.19,0,0,1,285.34,90l-.17.51-5,3.5-.56-.11c-.61-1.17-1.28-2.28-2-3.45-4.23.5-8.52.83-12.75,1.17-.39.78-.83,1.5-1.22,2.23h8.18l4.06-.28,3.51,3a.71.71,0,0,1,.33.62,2.37,2.37,0,0,1-.33.94,36.93,36.93,0,0,1-6.74,9,54.91,54.91,0,0,0,12.92,3.29L281.44,117a1.18,1.18,0,0,1-1,.56,4.86,4.86,0,0,1-.78-.11,46.12,46.12,0,0,1-13-5.46,44.58,44.58,0,0,1-15.14,5.85,3.12,3.12,0,0,1-.94.11,1.25,1.25,0,0,1-1.12-.61l-3.56-5.07A48.24,48.24,0,0,0,261,107.46a25.68,25.68,0,0,1-3.85-4.29,37.26,37.26,0,0,1-5.67,5.51,1.69,1.69,0,0,1-.89.34,1.47,1.47,0,0,1-1-.45l-4.18-3.78a38.28,38.28,0,0,0,11.36-12.53l-7.35.5-.5-.28-1.39-6.4.5-.39c2.56.06,5.51.06,8.57,0,.84-.78,1.62-1.56,2.45-2.39a66.24,66.24,0,0,0-10-7.63v-.44l3.84-4.57h.45c.83.5,1.78,1.06,2.73,1.67a65.74,65.74,0,0,0,5.23-7.73l.5-.17,6,3.23Zm-5.07,31.45a26.09,26.09,0,0,0,3.84,4,23.62,23.62,0,0,0,3.51-4Z"/></g></g></svg>